<svg width="87" height="74" viewBox="0 0 87 74" fill="none" xmlns="http://www.w3.org/2000/svg">
<g clip-path="url(#clip0_1_862)">
<path fill-rule="evenodd" clip-rule="evenodd" d="M86.6185 11.5575C73.645 17.9783 67.1583 25.5227 67.1583 34.1909C72.688 34.833 77.2606 37.107 80.8761 41.013C84.4917 44.919 86.2994 49.4403 86.2994 54.577C86.2994 60.0347 84.5449 64.6363 81.0356 68.3818C77.5264 72.1273 73.1134 74 67.7963 74C61.8413 74 56.6839 71.5655 52.3239 66.6963C47.964 61.8272 45.784 55.9147 45.784 48.9588C45.784 28.091 57.375 11.7716 80.5571 0L86.6185 11.5575ZM40.8344 11.5575C27.7546 17.9783 21.2148 25.5227 21.2148 34.1909C26.8508 34.833 31.4765 37.107 35.0921 41.013C38.7076 44.919 40.5154 49.4403 40.5154 54.577C40.5154 60.0347 38.7342 64.6363 35.1718 68.3818C31.6094 72.1273 27.1698 74 21.8528 74C15.8977 74 10.7669 71.5655 6.46013 66.6963C2.15336 61.8272 0 55.9147 0 48.9588C0 28.091 11.5377 11.7716 34.6136 0L40.8344 11.5575Z" fill="#D1FA01" fill-opacity="0.1"/>
</g>
<defs>
<clipPath id="clip0_1_862">
<rect width="87" height="74" fill="white"/>
</clipPath>
</defs>
</svg>
