<svg width="18" height="18" viewBox="0 0 18 18" fill="none" xmlns="http://www.w3.org/2000/svg">
<path d="M10.1729 3.22582L11.3627 5.62131C11.523 5.9526 11.9533 6.26691 12.3162 6.33486L14.4679 6.69164C15.8433 6.92099 16.1639 7.92336 15.1767 8.92573L13.4975 10.6162C13.219 10.8965 13.0587 11.4486 13.1515 11.8479L13.6325 13.9376C14.0122 15.5855 13.1347 16.2311 11.6917 15.3647L9.67505 14.1584C9.31221 13.9376 8.70467 13.9376 8.34183 14.1584L6.32513 15.3647C4.88222 16.2226 4.00466 15.5855 4.38437 13.9376L4.86534 11.8479C4.94129 11.4401 4.78096 10.888 4.50251 10.6077L2.82333 8.91723C1.83607 7.92336 2.15672 6.92099 3.53213 6.68314L5.68384 6.32637C6.04667 6.26691 6.47702 5.94411 6.63734 5.61282L7.82711 3.21733C8.47684 1.92614 9.52316 1.92614 10.1729 3.22582Z" fill="#FAD720"/>
</svg>
