<?xml version="1.0" standalone="no"?>
<!DOCTYPE svg PUBLIC "-//W3C//DTD SVG 20010904//EN"
 "http://www.w3.org/TR/2001/REC-SVG-20010904/DTD/svg10.dtd">
<svg version="1.0" xmlns="http://www.w3.org/2000/svg"
 width="71.000000pt" height="71.000000pt" viewBox="0 0 71.000000 71.000000"
 preserveAspectRatio="xMidYMid meet">
<metadata>
Created by potrace 1.14, written by Peter Selinger 2001-2017
</metadata>
<g transform="translate(0.000000,71.000000) scale(0.100000,-0.100000)"
fill="#000000" stroke="none">
<path d="M132 692 c-34 -10 -90 -59 -109 -95 -14 -27 -17 -64 -18 -227 -1
-107 3 -212 8 -234 11 -42 63 -101 105 -118 34 -14 394 -20 444 -7 48 12 94
51 119 101 18 35 20 60 21 236 0 215 -5 244 -57 297 -51 50 -77 55 -292 54
-109 -1 -208 -4 -221 -7z"/>
</g>
</svg>
